<svg width="36" height="36" viewBox="0 0 36 36" fill="none" xmlns="http://www.w3.org/2000/svg">
<circle cx="18" cy="18" r="18" fill="#9CBDB5"/>
<path fill-rule="evenodd" clip-rule="evenodd" d="M21.96 8.1001H14.04C10.7594 8.1001 8.09998 10.7595 8.09998 14.0401V21.9601C8.09998 25.2407 10.7594 27.9001 14.04 27.9001H21.96C25.2405 27.9001 27.9 25.2407 27.9 21.9601V14.0401C27.9 10.7595 25.2405 8.1001 21.96 8.1001ZM10.08 14.0401C10.08 11.853 11.8529 10.0801 14.04 10.0801H21.96C24.147 10.0801 25.92 11.853 25.92 14.0401V21.9601C25.92 24.1471 24.147 25.9201 21.96 25.9201H14.04C11.8529 25.9201 10.08 24.1471 10.08 21.9601V14.0401ZM18 22.9501C15.2662 22.9501 13.05 20.7339 13.05 18.0001C13.05 15.2663 15.2662 13.0501 18 13.0501C20.7338 13.0501 22.95 15.2663 22.95 18.0001C22.95 20.7339 20.7338 22.9501 18 22.9501ZM18 20.9701C19.6403 20.9701 20.97 19.6404 20.97 18.0001C20.97 16.3598 19.6403 15.0301 18 15.0301C16.3597 15.0301 15.03 16.3598 15.03 18.0001C15.03 19.6404 16.3597 20.9701 18 20.9701ZM23.94 13.0501C23.94 13.5969 23.4967 14.0401 22.95 14.0401C22.4032 14.0401 21.96 13.5969 21.96 13.0501C21.96 12.5033 22.4032 12.0601 22.95 12.0601C23.4967 12.0601 23.94 12.5033 23.94 13.0501Z" fill="#DBECE8"/>
</svg>
