<svg width="36" height="36" viewBox="0 0 36 36" fill="none" xmlns="http://www.w3.org/2000/svg">
<circle cx="18" cy="18" r="18" fill="#9CBDB5"/>
<path d="M23.6139 20.5136C24.0861 20.0414 24.1536 19.3667 23.7488 18.6921C23.4115 18.1524 22.8043 17.8825 22.1297 18.0174C21.8598 18.0849 21.5899 18.2198 21.3201 18.4222C19.2287 19.839 16.3951 19.7715 14.3037 18.3548C14.1688 18.2873 14.0339 18.2198 13.8989 18.1524C13.1568 17.815 12.4147 17.95 12.0099 18.6246C11.5377 19.2993 11.6051 20.0414 12.2123 20.6486C12.3472 20.7835 12.4822 20.851 12.5496 20.9859L12.6171 21.0534C13.5616 21.7955 14.7085 22.2677 16.1928 22.4701L15.3157 23.3472C14.5736 24.0893 13.764 24.8989 13.0219 25.641C12.8195 25.8434 12.5496 26.1807 12.5496 26.653C12.5496 27.2601 12.887 27.8673 13.4942 28.1372C13.6966 28.2721 13.8989 28.2721 14.1013 28.2721C14.4387 28.2721 14.8435 28.1372 15.1133 27.7999C16.1253 26.7879 16.9349 25.9783 17.7444 25.1687C17.8119 25.1013 17.8119 25.1013 17.8119 25.1013C17.8119 25.1013 17.8794 25.1013 17.8794 25.1687C18.4191 25.7759 19.0263 26.3156 19.566 26.9228C19.8359 27.1927 20.1057 27.4625 20.3756 27.7324C20.7129 28.0697 20.9828 28.2047 21.3875 28.2047C21.9947 28.2721 22.6694 27.8673 22.9392 27.2601C23.2091 26.7204 23.0742 26.0458 22.6019 25.641C21.9273 24.9663 21.2526 24.2242 20.5105 23.5496L19.3636 22.4027C19.9708 22.3352 20.6454 22.2003 21.2526 21.9304C22.2646 21.5931 23.0067 21.1208 23.6139 20.5136Z" fill="#DBECE8"/>
<path d="M17.8119 18.6246C20.7129 18.6246 23.0742 16.3308 23.0742 13.4298C23.0742 12.0131 22.5344 10.6638 21.5225 9.65179C20.5105 8.63982 19.2287 8.1001 17.8794 8.1001C14.9784 8.1001 12.6846 10.4614 12.6171 13.2949C12.6171 14.7117 13.1568 15.9935 14.1688 17.0055C15.1133 18.0849 16.3951 18.6246 17.8119 18.6246ZM16.3277 11.8781C16.7325 11.4733 17.2722 11.2709 17.8119 11.2709C19.0263 11.2709 19.9033 12.2155 19.9033 13.3624C19.9033 14.5767 18.9588 15.4538 17.8119 15.4538C16.5975 15.4538 15.7205 14.5093 15.7205 13.3624C15.7205 12.8226 15.9229 12.2829 16.3277 11.8781Z" fill="#DBECE8"/>
<path d="M23.6139 20.5136C24.0861 20.0414 24.1536 19.3667 23.7488 18.6921C23.4115 18.1524 22.8043 17.8825 22.1297 18.0174C21.8598 18.0849 21.5899 18.2198 21.3201 18.4222C19.2287 19.839 16.3951 19.7715 14.3037 18.3548C14.1688 18.2873 14.0339 18.2198 13.8989 18.1524C13.1568 17.815 12.4147 17.95 12.0099 18.6246C11.5377 19.2993 11.6051 20.0414 12.2123 20.6486C12.3472 20.7835 12.4822 20.851 12.5496 20.9859L12.6171 21.0534C13.5616 21.7955 14.7085 22.2677 16.1928 22.4701L15.3157 23.3472C14.5736 24.0893 13.764 24.8989 13.0219 25.641C12.8195 25.8434 12.5496 26.1807 12.5496 26.653C12.5496 27.2601 12.887 27.8673 13.4942 28.1372C13.6966 28.2721 13.8989 28.2721 14.1013 28.2721C14.4387 28.2721 14.8435 28.1372 15.1133 27.7999C16.1253 26.7879 16.9349 25.9783 17.7444 25.1687C17.8119 25.1013 17.8119 25.1013 17.8119 25.1013C17.8119 25.1013 17.8794 25.1013 17.8794 25.1687C18.4191 25.7759 19.0263 26.3156 19.566 26.9228C19.8359 27.1927 20.1057 27.4625 20.3756 27.7324C20.7129 28.0697 20.9828 28.2047 21.3875 28.2047C21.9947 28.2721 22.6694 27.8673 22.9392 27.2601C23.2091 26.7204 23.0742 26.0458 22.6019 25.641C21.9273 24.9663 21.2526 24.2242 20.5105 23.5496L19.3636 22.4027C19.9708 22.3352 20.6454 22.2003 21.2526 21.9304C22.2646 21.5931 23.0067 21.1208 23.6139 20.5136Z" fill="#DBECE8"/>
</svg>
