<svg width="36" height="36" viewBox="0 0 36 36" fill="none" xmlns="http://www.w3.org/2000/svg">
<circle cx="18" cy="18" r="18" fill="#9CBDB5"/>
<path d="M26.8258 22.6038C26.8258 22.5291 26.7511 22.5291 26.7511 22.4544C26.4522 21.8566 25.7798 21.1094 24.8831 20.2875C24.4348 19.9139 24.2106 19.615 24.0612 19.4656C23.837 19.1667 23.837 18.9425 23.9117 18.6436C23.9865 18.4195 24.2853 18.0459 24.8084 17.3734C25.1073 16.9998 25.2567 16.7756 25.4809 16.5515C26.6017 15.057 27.1247 14.0857 26.9753 13.6373L26.9006 13.5626C26.8258 13.4879 26.7511 13.4132 26.6017 13.4132C26.4522 13.3385 26.2281 13.3385 26.0039 13.4132H23.1645C23.0898 13.4132 23.0898 13.4132 22.9404 13.4132C22.8656 13.4132 22.7909 13.4132 22.7909 13.4132H22.7162H22.6415L22.5668 13.4879C22.492 13.5626 22.492 13.5626 22.492 13.6373C22.1932 14.4593 21.8196 15.1318 21.4459 15.879C21.2218 16.2526 20.9976 16.6262 20.7735 16.9251C20.5493 17.2239 20.3999 17.4481 20.2504 17.5975C20.101 17.747 19.9515 17.8217 19.8768 17.9711C19.8021 18.0459 19.6527 18.1206 19.6527 18.0459C19.5779 18.0459 19.5032 18.0459 19.5032 17.9711C19.4285 17.8964 19.3538 17.8217 19.2791 17.747C19.2043 17.6723 19.2043 17.5228 19.1296 17.3734C19.1296 17.2239 19.1296 17.0745 19.1296 16.9998C19.1296 16.9251 19.1296 16.7009 19.1296 16.5515C19.1296 16.3273 19.1296 16.1779 19.1296 16.1031C19.1296 15.879 19.1296 15.5801 19.1296 15.2812C19.1296 14.9823 19.1296 14.7582 19.1296 14.6087C19.1296 14.4593 19.1296 14.2351 19.1296 14.0857C19.1296 13.8615 19.1296 13.7121 19.1296 13.6373C19.1296 13.5626 19.0549 13.4132 19.0549 13.3385C18.9802 13.2638 18.9054 13.189 18.8307 13.1143C18.756 13.0396 18.6066 13.0396 18.5318 12.9649C18.1582 12.8901 17.7099 12.8154 17.1869 12.8154C15.9914 12.8154 15.1694 12.8902 14.8705 13.0396C14.7211 13.1143 14.5717 13.189 14.4969 13.3385C14.3475 13.4879 14.3475 13.5626 14.4222 13.5626C14.7958 13.6374 15.0947 13.7868 15.2441 14.011L15.3189 14.1604C15.3936 14.2351 15.3936 14.3846 15.4683 14.6087C15.543 14.8329 15.543 15.057 15.543 15.3559C15.543 15.8043 15.543 16.2526 15.543 16.5515C15.543 16.9251 15.4683 17.1492 15.4683 17.3734C15.4683 17.5975 15.3936 17.747 15.3189 17.8217C15.2442 17.9712 15.2441 18.0459 15.1694 18.0459C15.1694 18.0459 15.1694 18.1206 15.0947 18.1206C15.02 18.1206 14.9453 18.1953 14.7958 18.1953C14.7211 18.1953 14.5717 18.1206 14.4969 18.0459C14.3475 17.9712 14.1981 17.8217 14.1233 17.6723C13.9739 17.5228 13.8244 17.2987 13.675 16.9998C13.5256 16.7009 13.3014 16.402 13.152 15.9537L13.0025 15.6548C12.9278 15.5054 12.7784 15.2065 12.6289 14.8329C12.4795 14.4593 12.33 14.1604 12.1806 13.7868C12.1059 13.6374 12.0312 13.5626 11.9564 13.4879H11.8817C11.8817 13.4879 11.807 13.4132 11.7323 13.4132C11.6575 13.4132 11.5828 13.3385 11.5081 13.3385H8.81817C8.51928 13.3385 8.36984 13.4132 8.29512 13.4879L8.2204 13.5626C8.2204 13.5626 8.2204 13.6374 8.2204 13.7121C8.2204 13.7868 8.2204 13.8615 8.29512 14.011C8.66873 14.9076 9.11705 15.8043 9.56537 16.7009C10.0137 17.5228 10.462 18.27 10.7609 18.7931C11.1345 19.3161 11.4334 19.8392 11.807 20.2875C12.1806 20.7358 12.4048 21.0347 12.4795 21.1841C12.6289 21.3336 12.7036 21.4083 12.7784 21.483L13.0025 21.7072C13.152 21.8566 13.3761 22.0808 13.675 22.3049C13.9739 22.5291 14.3475 22.7533 14.7211 22.9774C15.0947 23.2016 15.543 23.351 15.9914 23.5005C16.5144 23.6499 16.9627 23.7246 17.411 23.6499H18.5318C18.756 23.6499 18.9055 23.5752 19.0549 23.4258L19.1296 23.351C19.1296 23.2763 19.2043 23.2763 19.2043 23.2016C19.2043 23.1269 19.2043 23.0522 19.2043 22.9027C19.2043 22.6038 19.2043 22.3797 19.2791 22.1555C19.3538 21.9313 19.3538 21.7819 19.4285 21.6325C19.5032 21.483 19.5779 21.4083 19.6527 21.3336C19.7274 21.2589 19.8021 21.1841 19.8021 21.1841H19.8768C20.0263 21.1094 20.2504 21.1841 20.3999 21.3336C20.624 21.483 20.8482 21.7072 20.9976 21.9313C21.1471 22.1555 21.3712 22.3797 21.6701 22.6785C21.969 22.9774 22.1932 23.2016 22.3426 23.2763L22.5668 23.4258C22.7162 23.5005 22.8657 23.5752 23.0898 23.6499C23.314 23.7246 23.4634 23.7246 23.6128 23.7246L26.1534 23.6499C26.3775 23.6499 26.6017 23.5752 26.7511 23.5005C26.9006 23.4258 26.9753 23.351 26.9753 23.2016C26.9753 23.1269 26.9753 22.9774 26.9753 22.9027C26.8258 22.7533 26.8258 22.6785 26.8258 22.6038Z" fill="#DBECE8"/>
</svg>
