<svg width="130" height="26" viewBox="0 0 130 26" fill="none" xmlns="http://www.w3.org/2000/svg">
<g clip-path="url(#clip0_1108_270)">
<path d="M17.1542 13.3755H18.652C18.7173 13.3658 18.7839 13.3718 18.8465 13.393C18.9092 13.4143 18.9661 13.4502 19.0127 13.4979C19.0594 13.5456 19.0945 13.6037 19.1153 13.6677C19.1361 13.7317 19.1419 13.7998 19.1325 13.8666V21.161C19.1419 21.2278 19.1361 21.2958 19.1153 21.3599C19.0945 21.4239 19.0594 21.482 19.0127 21.5297C18.9661 21.5774 18.9092 21.6133 18.8465 21.6345C18.7839 21.6558 18.7173 21.6618 18.652 21.6521H13.9042C13.8389 21.6618 13.7723 21.6558 13.7097 21.6345C13.6471 21.6133 13.5902 21.5774 13.5435 21.5297C13.4969 21.482 13.4618 21.4239 13.441 21.3599C13.4202 21.2958 13.4143 21.2278 13.4238 21.161V18.6188H0.473228C0.407795 18.6275 0.341274 18.6205 0.27896 18.5983C0.216647 18.5761 0.160261 18.5394 0.114293 18.491C0.0683244 18.4426 0.0340423 18.3839 0.0141757 18.3196C-0.00569098 18.2552 -0.0105935 18.1871 -0.000141693 18.1205V0.649906C-0.00937162 0.583848 -0.00355272 0.516503 0.0168614 0.453121C0.0372755 0.38974 0.0717332 0.332033 0.117549 0.284501C0.163364 0.236968 0.219299 0.200894 0.280994 0.179089C0.342689 0.157285 0.408476 0.15034 0.473228 0.158795H5.41888C5.48417 0.149103 5.55078 0.155123 5.61339 0.176376C5.676 0.197629 5.7329 0.233528 5.77955 0.281217C5.82621 0.328906 5.86133 0.387068 5.88212 0.451074C5.90291 0.515081 5.9088 0.583164 5.89931 0.649906V13.3755H11.2689V0.649906C11.2599 0.584521 11.2656 0.517898 11.2856 0.455124C11.3057 0.39235 11.3395 0.335086 11.3845 0.287704C11.4295 0.240323 11.4844 0.204078 11.5452 0.181736C11.606 0.159395 11.671 0.151548 11.7352 0.158795H16.6808C16.7461 0.149103 16.8127 0.155123 16.8753 0.176376C16.938 0.197629 16.9949 0.233528 17.0415 0.281217C17.0882 0.328906 17.1233 0.387068 17.1441 0.451074C17.1649 0.515081 17.1708 0.583164 17.1613 0.649906L17.1542 13.3755Z" fill="#9CBDB5"/>
<path d="M38.7104 0.158795C38.7757 0.149103 38.8423 0.155123 38.9049 0.176376C38.9676 0.197629 39.0245 0.233528 39.0711 0.281217C39.1178 0.328906 39.1529 0.387068 39.1737 0.451074C39.1945 0.515081 39.2004 0.583164 39.1909 0.649906V18.8427C39.1909 20.6988 39.0637 21.7316 38.4278 22.9088C37.6012 24.5699 35.4675 25.4149 31.1648 25.4149C28.9562 25.4598 26.7486 25.2857 24.5729 24.8949C24.4503 24.8821 24.3377 24.8203 24.2596 24.7228C24.1814 24.6254 24.1442 24.5003 24.1561 24.3749V21.356C24.1561 21.031 24.2833 20.8649 24.5729 20.8649H30.5925C32.9805 20.8649 33.6164 20.3738 33.6164 18.5827V18.3516C32.3844 18.645 31.1227 18.7881 29.8577 18.7777C27.0882 18.7777 25.1099 18.1566 23.9653 16.8927C22.8208 15.6288 22.2767 13.5416 22.2767 10.6382V0.649906C22.2673 0.583164 22.2731 0.515081 22.2939 0.451074C22.3147 0.387068 22.3498 0.328906 22.3965 0.281217C22.4432 0.233528 22.5001 0.197629 22.5627 0.176376C22.6253 0.155123 22.6919 0.149103 22.7572 0.158795H27.3425C27.4078 0.149103 27.4744 0.155123 27.537 0.176376C27.5996 0.197629 27.6565 0.233528 27.7032 0.281217C27.7498 0.328906 27.7849 0.387068 27.8057 0.451074C27.8265 0.515081 27.8324 0.583164 27.8229 0.649906V9.37435C27.8229 11.2305 28.049 12.4366 28.4941 12.9855C28.9392 13.5343 29.9072 13.8305 31.3626 13.8305C32.1208 13.8447 32.8784 13.7794 33.6235 13.6355V0.649906C33.614 0.583164 33.6199 0.515081 33.6407 0.451074C33.6615 0.387068 33.6966 0.328906 33.7432 0.281217C33.7899 0.233528 33.8468 0.197629 33.9094 0.176376C33.972 0.155123 34.0386 0.149103 34.1039 0.158795H38.7104Z" fill="#9CBDB5"/>
<path d="M60.2452 0.158795C60.3105 0.149103 60.3771 0.155123 60.4397 0.176376C60.5023 0.197629 60.5592 0.233528 60.6059 0.281217C60.6525 0.328906 60.6876 0.387068 60.7084 0.451074C60.7292 0.515081 60.7351 0.583164 60.7256 0.649906V18.1205C60.7351 18.1872 60.7292 18.2553 60.7084 18.3193C60.6876 18.3833 60.6525 18.4415 60.6059 18.4892C60.5592 18.5368 60.5023 18.5727 60.4397 18.594C60.3771 18.6152 60.3105 18.6213 60.2452 18.6116H55.2995C55.2353 18.6188 55.1704 18.611 55.1096 18.5886C55.0488 18.5663 54.9938 18.53 54.9488 18.4827C54.9038 18.4353 54.87 18.378 54.85 18.3152C54.83 18.2525 54.8242 18.1858 54.8332 18.1205V12.3066H49.3224V18.1205C49.3318 18.1872 49.326 18.2553 49.3052 18.3193C49.2844 18.3833 49.2493 18.4415 49.2026 18.4892C49.1559 18.5368 49.099 18.5727 49.0364 18.594C48.9738 18.6152 48.9072 18.6213 48.8419 18.6116H43.8963C43.831 18.6213 43.7644 18.6152 43.7018 18.594C43.6391 18.5727 43.5823 18.5368 43.5356 18.4892C43.4889 18.4415 43.4538 18.3833 43.433 18.3193C43.4122 18.2553 43.4064 18.1872 43.4158 18.1205V0.649906C43.4064 0.583164 43.4122 0.515081 43.433 0.451074C43.4538 0.387068 43.4889 0.328906 43.5356 0.281217C43.5823 0.233528 43.6391 0.197629 43.7018 0.176376C43.7644 0.155123 43.831 0.149103 43.8963 0.158795H48.8419C48.9072 0.149103 48.9738 0.155123 49.0364 0.176376C49.099 0.197629 49.1559 0.233528 49.2026 0.281217C49.2493 0.328906 49.2844 0.387068 49.3052 0.451074C49.326 0.515081 49.3318 0.583164 49.3224 0.649906V6.96213H54.8332V0.649906C54.8237 0.583164 54.8296 0.515081 54.8504 0.451074C54.8712 0.387068 54.9063 0.328906 54.953 0.281217C54.9996 0.233528 55.0565 0.197629 55.1192 0.176376C55.1818 0.155123 55.2484 0.149103 55.3137 0.158795H60.2452Z" fill="#9CBDB5"/>
<path d="M78.6783 1.66109C79.7946 2.7372 80.0913 3.94331 80.0913 5.86442V17.0589C80.1176 17.308 80.0484 17.5578 79.8982 17.7558C79.748 17.9539 79.5285 18.0846 79.2859 18.1205C76.8844 18.6003 74.4415 18.8302 71.9946 18.8066C70.3349 18.8854 68.6723 18.7421 67.0489 18.3805C64.9788 17.7955 64.2228 16.5244 64.0533 13.6283V12.7616C64.0533 10.6455 64.6256 9.24442 65.7065 8.55831C66.7875 7.8722 68.5326 7.4822 70.9913 7.4822H74.5239V6.8322C74.5239 5.56109 73.7256 4.91109 72.1006 4.91109H65.8478C65.4946 4.91109 65.4027 4.80998 65.4027 4.41998V1.06886C65.4027 0.678865 65.5016 0.642754 65.8478 0.548865C67.9065 0.152294 69.9987 -0.0339932 72.0935 -0.00724636C75.4353 -2.4138e-05 77.6326 0.519976 78.6783 1.66109ZM74.5098 10.8983H71.5495C69.8962 10.8983 69.543 11.3244 69.543 12.3933V12.7544C69.543 13.9244 70.0517 14.2494 71.712 14.2494C72.6605 14.2691 73.6082 14.1819 74.5381 13.9894L74.5098 10.8983Z" fill="#9CBDB5"/>
<path d="M105.272 0.158997C105.324 0.156084 105.377 0.163914 105.427 0.18203C105.476 0.200146 105.522 0.228183 105.56 0.2645C105.599 0.300817 105.631 0.344685 105.653 0.393536C105.675 0.442386 105.687 0.495238 105.689 0.548997L107.695 18.1929C107.695 18.489 107.596 18.619 107.314 18.619H102.439C102.213 18.619 102.086 18.489 102.057 18.1929L101.04 8.62344L97.698 17.644C97.6591 17.7678 97.5827 17.8758 97.4798 17.9524C97.377 18.029 97.253 18.0702 97.1257 18.0701H94.0029C93.8757 18.0702 93.7517 18.029 93.6488 17.9524C93.546 17.8758 93.4696 17.7678 93.4306 17.644L90.117 8.62344L89.0643 18.1929C89.0643 18.489 88.9018 18.619 88.6828 18.619H83.8007C83.5134 18.619 83.3862 18.489 83.4192 18.229L85.4681 0.585108C85.4668 0.525651 85.4779 0.466589 85.5006 0.41185C85.5234 0.357112 85.5573 0.307952 85.6001 0.267642C85.6428 0.227331 85.6935 0.196794 85.7487 0.178061C85.804 0.159328 85.8624 0.152829 85.9203 0.158997H89.9333C91.0496 0.158997 91.5583 0.353997 91.841 1.134L95.5643 10.5734L99.2877 1.09789C99.5774 0.325108 100.051 0.158997 101.195 0.158997H105.272Z" fill="#9CBDB5"/>
<path d="M127.789 0.158804C128.043 0.158804 128.17 0.288804 128.17 0.584915V18.1999C128.17 18.496 128.043 18.626 127.789 18.626H123.076C122.85 18.626 122.723 18.496 122.723 18.1999V9.63436L116.449 17.8388C116.246 18.1017 115.984 18.3101 115.685 18.446C115.386 18.582 115.059 18.6413 114.732 18.6188H111.581C111.327 18.6188 111.199 18.4888 111.199 18.1927V0.584915C111.199 0.288804 111.327 0.158804 111.581 0.158804H116.3C116.555 0.158804 116.682 0.288804 116.682 0.584915V9.25158L122.829 1.04714C123.017 0.769982 123.268 0.544111 123.561 0.389259C123.855 0.234406 124.18 0.155284 124.51 0.158804H127.789Z" fill="#9CBDB5"/>
</g>
<defs>
<clipPath id="clip0_1108_270">
<rect width="130" height="26" fill="white"/>
</clipPath>
</defs>
</svg>
